
<svg width="26px" height="17px" viewBox="0 0 26 17" version="1.1" xmlns="http://www.w3.org/2000/svg" xmlns:xlink="http://www.w3.org/1999/xlink">
    <!-- Generator: Sketch 51.3 (57544) - http://www.bohemiancoding.com/sketch -->
    <desc>Created with Sketch.</desc>
    <defs>
        <polygon id="path-1" points="0 0 26 0 26 16.3703704 0 16.3703704"></polygon>
    </defs>
    <g id="Page-1" stroke="none" stroke-width="1" fill="none" fill-rule="evenodd">
        <g id="left-arrow">
            <mask id="mask-2" fill="white">
                <use xlink:href="#path-1"></use>
            </mask>
            <g id="Clip-2"></g>
            <path d="M24.8745364,7.04285875 L3.84245629,7.04285875 L8.86089282,1.94948085 C9.30077585,1.50373917 9.30077585,0.780295304 8.86089282,0.334553621 C8.42125353,-0.111517874 7.70845452,-0.111517874 7.26954648,0.334553621 L0.329729464,7.37753605 C-0.109909821,7.82327773 -0.109909821,8.5467216 0.329729464,8.99246328 L7.26954648,16.0357755 C7.489163,16.2589762 7.77735382,16.3703704 8.06521965,16.3703704 C8.35308548,16.3703704 8.64119505,16.2589762 8.86089282,16.0357755 C9.30077585,15.589704 9.30077585,14.86659 8.86089282,14.4205185 L3.84245629,9.32705813 L24.8745364,9.32705813 C25.4960114,9.32705813 26,8.81560129 26,8.18499967 C26,7.55431559 25.4960114,7.04285875 24.8745364,7.04285875 Z" id="Fill-1" fill="#FFFFFF" mask="url(#mask-2)"></path>
        </g>
    </g>
</svg>