
<svg width="44px" height="30px" viewBox="0 0 44 30" version="1.1" xmlns="http://www.w3.org/2000/svg" xmlns:xlink="http://www.w3.org/1999/xlink">
    <!-- Generator: Sketch 51.3 (57544) - http://www.bohemiancoding.com/sketch -->
    <desc>Created with Sketch.</desc>
    <defs>
        <polygon id="path-1" points="0.00722970753 0.00481339379 43.1372549 0.00481339379 43.1372549 29.3617021 0.00722970753 29.3617021"></polygon>
    </defs>
    <g id="Page-1" stroke="none" stroke-width="1" fill="none" fill-rule="evenodd">
        <g id="service-booking-dimo" transform="translate(-33.000000, -140.000000)">
            <g id="service" transform="translate(33.000000, 140.000000)">
                <path d="M14,23.5 C14,25.9852392 11.9852392,28 9.5,28 C7.01476079,28 5,25.9852392 5,23.5 C5,21.0147608 7.01476079,19 9.5,19 C11.9852392,19 14,21.0147608 14,23.5 Z" id="Fill-1" fill="#FFFFFF"></path>
                <g id="Group-6">
                    <mask id="mask-2" fill="white">
                        <use xlink:href="#path-1"></use>
                    </mask>
                    <g id="Clip-3"></g>
                    <path d="M34.0809618,14.6695396 C34.0799978,11.5632159 31.5576733,9.04593129 28.4472122,9.04689397 C27.7858144,9.04713464 27.1297185,9.16361877 26.5089276,9.39117196 L26.5089276,19.9473055 C29.427681,21.0182857 32.6630956,19.5236066 33.7355022,16.6087356 C33.963961,15.9876875 34.0809618,15.3311406 34.0809618,14.6695396" id="Fill-2" fill="#FFFFFF" mask="url(#mask-2)"></path>
                    <path d="M16.5520539,4.00919602 L11.3308796,10.855647 C11.2015883,11.0239955 11.0206047,11.145293 10.8156425,11.201008 L2.07974586,13.5836379 C0.856840837,13.9178078 0.0066272319,15.0245274 0,16.2905703 L0,19.4749913 C0.0126519882,21.0241821 1.27845328,22.2708511 2.82970753,22.2619463 L3.52544638,22.2619463 C3.81367072,18.9334845 6.74929346,16.4685455 10.0821886,16.7565068 C13.015281,17.0098116 15.3413189,19.3327555 15.5949611,22.2619463 L24.5810056,22.2619937 L24.5810056,2.4066969 L19.7897579,2.4066969 C18.5201008,2.41078828 17.3241867,3.00271538 16.5520539,4.00919602" id="Fill-4" fill="#FFFFFF" mask="url(#mask-2)"></path>
                    <path d="M40.5937233,13.0056697 C40.1739183,12.9660795 39.8271333,12.6616324 39.7341111,12.2509295 C39.4367291,10.8785106 38.8860664,9.57347925 38.1101983,8.40250087 C37.8741483,8.04859609 37.8987293,7.58193757 38.1704458,7.25450645 L39.7874904,5.30327694 L37.8206485,3.31414196 L35.8752547,4.92350017 C35.5517253,5.19160621 35.0914339,5.21952389 34.7379012,4.99221137 C33.5582539,4.22122602 32.2484719,3.6699721 30.8721766,3.36492326 C30.4628546,3.27852285 30.1569175,2.93689222 30.1163107,2.521015 L29.8726695,0 L26.5089276,0 L26.5089276,7.37496163 C30.5432249,6.30554587 34.6817505,8.70490234 35.7524702,12.7338333 C36.8233103,16.7627642 34.4208785,20.8957848 30.3865812,21.9650802 C29.1159601,22.3018975 27.7794282,22.3018975 26.5089276,21.9650802 L26.5089276,29.3617021 L29.8726695,29.3617021 L30.1167926,26.829496 C30.1569175,26.4120544 30.4623727,26.0682578 30.8726586,25.9789693 C32.247026,25.6819829 33.5540366,25.1319323 34.7266951,24.3570963 C35.0810713,24.1213603 35.5484719,24.1459086 35.8762186,24.4172637 L37.8261913,26.0297506 L39.8264103,24.0321922 L38.2117757,22.0849337 C37.9440355,21.761233 37.9171651,21.3016742 38.1453828,20.9490931 C38.9188411,19.7712557 39.4726367,18.4633362 39.7798992,17.0885106 C39.8705116,16.6787705 40.2152481,16.3739623 40.6334867,16.3337705 L43.1372549,16.0905738 L43.1372549,13.2494681 L40.5937233,13.0056697" id="Fill-5" fill="#FFFFFF" mask="url(#mask-2)"></path>
                </g>
            </g>
        </g>
    </g>
</svg>