
<svg width="24px" height="33px" viewBox="0 0 24 33" version="1.1" xmlns="http://www.w3.org/2000/svg" xmlns:xlink="http://www.w3.org/1999/xlink">
    <!-- Generator: Sketch 51.3 (57544) - http://www.bohemiancoding.com/sketch -->
    <desc>Created with Sketch.</desc>
    <defs></defs>
    <g id="Page-1" stroke="none" stroke-width="1" fill="none" fill-rule="evenodd">
        <g id="service-booking-dimo" transform="translate(-40.000000, -283.000000)" fill="#FFFFFF">
            <g id="shopping-list" transform="translate(40.000000, 283.000000)">
                <path d="M8,9 L18,9 C18.552,9 19,8.496 19,7.875 L19,3.375 C19,2.754 18.552,2.25 18,2.25 L15.828,2.25 C15.416,0.9405 14.304,0 13,0 C11.696,0 10.584,0.9405 10.17,2.25 L8,2.25 C7.448,2.25 7,2.754 7,3.375 L7,7.875 C7,8.496 7.448,9 8,9" id="Fill-1"></path>
                <path d="M19,15.8571429 L15,15.8571429 C14.448,15.8571429 14,15.3771429 14,14.7857143 C14,14.1942857 14.448,13.7142857 15,13.7142857 L19,13.7142857 C19.552,13.7142857 20,14.1942857 20,14.7857143 C20,15.3771429 19.552,15.8571429 19,15.8571429 Z M19,24.4285714 L15,24.4285714 C14.448,24.4285714 14,23.9485714 14,23.3571429 C14,22.7657143 14.448,22.2857143 15,22.2857143 L19,22.2857143 C19.552,22.2857143 20,22.7657143 20,23.3571429 C20,23.9485714 19.552,24.4285714 19,24.4285714 Z M11.708,13.4014286 L7.708,17.6871429 C7.512,17.895 7.256,18 7,18 C6.744,18 6.488,17.895 6.292,17.6871429 L4.292,15.5442857 C3.902,15.1264286 3.902,14.4471429 4.292,14.0292857 C4.682,13.6114286 5.316,13.6114286 5.706,14.0292857 L7,15.4135714 L10.292,11.8864286 C10.682,11.4685714 11.316,11.4685714 11.706,11.8864286 C12.096,12.3042857 12.098,12.9814286 11.708,13.4014286 Z M11.708,21.9728571 L7.708,26.2585714 C7.512,26.4664286 7.256,26.5714286 7,26.5714286 C6.744,26.5714286 6.488,26.4664286 6.292,26.2585714 L4.292,24.1157143 C3.902,23.6978571 3.902,23.0185714 4.292,22.6007143 C4.682,22.1828571 5.316,22.1828571 5.706,22.6007143 L7,23.985 L10.292,20.4578571 C10.682,20.04 11.316,20.04 11.706,20.4578571 C12.096,20.8757143 12.098,21.5528571 11.708,21.9728571 Z M22,3 L20,3 L20,6.21428571 C20,7.98642857 18.654,9.42857143 17,9.42857143 L7,9.42857143 C5.346,9.42857143 4,7.98642857 4,6.21428571 L4,3 L2,3 C0.898,3 0,3.96214286 0,5.14285714 L0,30.8571429 C0,32.0592857 0.878,33 2,33 L22,33 C23.122,33 24,32.0592857 24,30.8571429 L24,5.14285714 C24,3.94071429 23.122,3 22,3 Z" id="Fill-2"></path>
            </g>
        </g>
    </g>
</svg>