
<svg width="34px" height="35px" viewBox="0 0 34 35" version="1.1" xmlns="http://www.w3.org/2000/svg" xmlns:xlink="http://www.w3.org/1999/xlink">
    <!-- Generator: Sketch 51.3 (57544) - http://www.bohemiancoding.com/sketch -->
    <desc>Created with Sketch.</desc>
    <defs>
        <polygon id="path-1" points="0 0.00823437378 27.9127692 0.00823437378 27.9127692 19.948332 0 19.948332"></polygon>
    </defs>
    <g id="Page-1" stroke="none" stroke-width="1" fill="none" fill-rule="evenodd">
        <g id="service-booking-dimo" transform="translate(-35.000000, -211.000000)">
            <g id="credit-card" transform="translate(35.000000, 211.000000)">
                <g id="Group-3">
                    <mask id="mask-2" fill="white">
                        <use xlink:href="#path-1"></use>
                    </mask>
                    <g id="Clip-2"></g>
                    <path d="M27.4353636,9.08477477 C27.9517273,9.08477477 28.0972727,8.39297297 27.6317273,8.18387387 L9.457,0.198288288 C8.35154545,-0.291981982 7.04972727,0.198288288 6.55536364,1.30081081 L0.191727273,15.4414414 C-0.302909091,16.5369369 0.191727273,17.827027 1.30436364,18.3172973 L4.96981818,19.8881982 C5.42790909,20.0901802 5.95172727,19.7587387 5.95172727,19.2610811 L5.95172727,13.2578378 C5.95172727,10.9583784 7.83527273,9.0918018 10.1551818,9.0918018 L27.4353636,9.0918018 L27.4353636,9.08477477 Z" id="Fill-1" fill="#FFFFFF" mask="url(#mask-2)"></path>
                </g>
                <path d="M31.8160114,11 L10.1839886,11 C8.97784808,11 8,11.9953596 8,13.2231 L8,28.7769908 C8,30.0046404 8.97784808,31 10.1839886,31 L13.0886283,31 C13.0175266,30.5641158 12.9815744,30.1210577 12.9815744,29.6705533 C12.9815744,29.1618402 13.0314436,28.6681105 13.117176,28.18101 L10.7764427,28.18101 L10.7764427,20.7346555 L31.2306051,20.7346555 L31.2306051,28.1739269 L28.882824,28.1739269 C28.9682887,28.6606642 29.0184256,29.154757 29.0184256,29.6631069 C29.0184256,30.1136114 28.9825626,30.5565787 28.9111041,30.9925536 L31.8160114,30.9925536 C33.0221519,30.9925536 34,29.997194 34,28.7695444 L34,13.2231 C34,11.9953596 33.0221519,11 31.8160114,11 Z M10.7764427,16.1509703 L31.2306051,16.1509703 L31.2306051,13.8186268 L10.7764427,13.8186268 L10.7764427,16.1509703 Z" id="Fill-4" fill="#FFFFFF"></path>
                <path d="M20.5001749,24 C17.4631526,24 15,26.4630847 15,29.4998688 C15,32.5369153 17.4631526,35 20.5001749,35 C23.5369348,35 26,32.5369153 26,29.4998688 C26,26.4630847 23.5369348,24 20.5001749,24 Z M22.0813998,31.6690627 C21.843665,31.9629535 21.5286096,32.1590557 21.1647477,32.2567569 C21.0038088,32.2988287 20.9337479,32.382885 20.9409202,32.5509101 C20.9477426,32.7118503 20.9409202,32.8727905 20.9409202,33.0405531 C20.9409202,33.1874985 20.8640368,33.2647323 20.7240025,33.2647323 C20.5490689,33.2715548 20.3741353,33.2715548 20.1992017,33.2647323 C20.0450852,33.2647323 19.9753741,33.1735037 19.9753741,33.0265583 L19.9753741,32.6698659 C19.9753741,32.4108746 19.9613794,32.3968798 19.7092126,32.3548079 C19.3874223,32.3060011 19.0727167,32.2291171 18.7788283,32.0889942 C18.5479159,31.9769483 18.5199265,31.9208817 18.5899,31.6762351 C18.6387939,31.4941278 18.6876879,31.3123703 18.7436666,31.1374353 C18.8065552,30.9273384 18.8626215,30.9065211 19.058722,31.0045722 C19.3874223,31.1723348 19.7303796,31.2703859 20.094329,31.3123703 C20.3252413,31.3404474 20.5558913,31.3191928 20.772809,31.2211417 C21.1787424,31.0462067 21.2419809,30.5774684 20.8989361,30.2976598 C20.7799812,30.1996088 20.6539416,30.1298972 20.5141696,30.0738305 C20.1571301,29.9197128 19.7864458,29.8008445 19.4573957,29.5979199 C18.9117778,29.2760395 18.568733,28.8281184 18.6108045,28.1635404 C18.6527886,27.4146436 19.0795391,26.9529902 19.7652789,26.7009089 C20.0450852,26.5959479 20.0522574,26.6031202 20.0522574,26.308967 L20.0522574,26.0083412 C20.0590798,25.784162 20.094329,25.74935 20.3180691,25.7425275 L20.520992,25.7425275 C20.9969864,25.7425275 20.9969864,25.7425275 20.9969864,26.2180883 C20.9969864,26.5539635 20.9969864,26.5539635 21.3328589,26.6031202 C21.5846758,26.6451921 21.8295829,26.7149037 22.0674051,26.8201271 C22.2003546,26.8758439 22.249511,26.9670725 22.2075269,27.1067581 C22.1514607,27.3097701 22.0953945,27.519867 22.025421,27.7156193 C21.9625324,27.9045491 21.8996438,27.9326262 21.7175379,27.8485699 C21.3468536,27.6668124 20.9618247,27.596751 20.5558913,27.6175682 C20.4510186,27.6247406 20.3460584,27.6387354 20.2480081,27.6808072 C19.8981409,27.8345751 19.8353398,28.2264295 20.136313,28.4642536 C20.2900797,28.583122 20.4581909,28.6743506 20.6399469,28.7512345 C20.9549148,28.8772751 21.262798,29.0030534 21.5637713,29.1711659 C22.4873332,29.6819761 22.7463224,30.8644492 22.0813998,31.6690627 Z" id="Fill-5" fill="#FFFFFF"></path>
            </g>
        </g>
    </g>
</svg>